<svg id="Layer_1" style="enable-background:new 0 0 156 128" version="1.1" viewBox="0 0 156 128" xml:space="preserve" xmlns="http://www.w3.org/2000/svg" xmlns:xlink="http://www.w3.org/1999/xlink"><style>.st1{clip-path:url(#SVGID_4_)}</style><defs><path d="M13.9 30c0-3.3 2.7-6 6-6h116c3.3 0 6 2.7 6 6v68c0 3.3-2.7 6-6 6h-116c-3.3 0-6-2.7-6-6V30z" id="SVGID_1_"/></defs><clipPath id="SVGID_2_"><use style="overflow:visible" xlink:href="#SVGID_1_"/></clipPath><g style="clip-path:url(#SVGID_2_);enable-background:new"><defs><path id="SVGID_3_" d="M8.9 19h138v90H8.9z"/></defs><clipPath id="SVGID_4_"><use style="overflow:visible" xlink:href="#SVGID_3_"/></clipPath><g class="st1"><defs><path id="SVGID_5_" d="M13.9 24h128v80h-128z"/></defs><clipPath id="SVGID_6_"><use style="overflow:visible" xlink:href="#SVGID_5_"/></clipPath><path style="clip-path:url(#SVGID_6_);fill:#fff" d="M8.9 19h138v90H8.9z"/></g><g class="st1"><defs><path d="M141.5 67.7s-34.7 24.5-98.3 35.4h98.3V67.7" id="SVGID_7_"/></defs><clipPath id="SVGID_8_"><use style="overflow:visible" xlink:href="#SVGID_7_"/></clipPath><g style="clip-path:url(#SVGID_8_)"><defs><path id="SVGID_9_" d="M13.9 24h128v80h-128z"/></defs><clipPath id="SVGID_10_"><use style="overflow:visible" xlink:href="#SVGID_9_"/></clipPath><path style="clip-path:url(#SVGID_10_);fill:#e6772f" d="M38.2 62.7h108.3v45.4H38.2z"/></g></g><g class="st1"><defs><path d="M13.9 30c0-3.3 2.7-6 6-6h116c3.3 0 6 2.7 6 6v68c0 3.3-2.7 6-6 6h-116c-3.3 0-6-2.7-6-6V30z" id="SVGID_11_"/></defs><clipPath id="SVGID_12_"><use style="overflow:visible" xlink:href="#SVGID_11_"/></clipPath><g style="clip-path:url(#SVGID_12_)"><defs><path id="SVGID_13_" d="M13.9 24h128v80h-128z"/></defs><clipPath id="SVGID_14_"><use style="overflow:visible" xlink:href="#SVGID_13_"/></clipPath><path d="M13.9 30c0-3.3 2.7-6 6-6h116c3.3 0 6 2.7 6 6v68c0 3.3-2.7 6-6 6h-116c-3.3 0-6-2.7-6-6V30z" style="clip-path:url(#SVGID_14_);fill:none;stroke:#cbcbcb;stroke-width:2px;stroke-miterlimit:10"/></g></g><g class="st1"><defs><path d="M24.9 47.7h-5.3v18.4h5.2c2.8 0 4.8-.7 6.6-2.1 2.1-1.7 3.3-4.4 3.3-7.1.1-5.4-4-9.2-9.8-9.2zm4.2 13.8c-1.1 1-2.6 1.5-4.9 1.5h-1V50.8h1c2.3 0 3.7.4 4.9 1.5 1.2 1.1 2 2.8 2 4.6 0 1.8-.8 3.5-2 4.6z" id="SVGID_15_"/></defs><clipPath id="SVGID_16_"><use style="overflow:visible" xlink:href="#SVGID_15_"/></clipPath><g style="clip-path:url(#SVGID_16_)"><defs><path id="SVGID_17_" d="M13.9 24h128v80h-128z"/></defs><clipPath id="SVGID_18_"><use style="overflow:visible" xlink:href="#SVGID_17_"/></clipPath><path style="clip-path:url(#SVGID_18_);fill:#1a1919" d="M14.6 42.7h25.2v28.4H14.6z"/></g></g><g class="st1"><defs><path id="SVGID_19_" d="M36.8 47.7h3.6v18.4h-3.6z"/></defs><clipPath id="SVGID_20_"><use style="overflow:visible" xlink:href="#SVGID_19_"/></clipPath><g style="clip-path:url(#SVGID_20_)"><defs><path id="SVGID_21_" d="M13.9 24h128v80h-128z"/></defs><clipPath id="SVGID_22_"><use style="overflow:visible" xlink:href="#SVGID_21_"/></clipPath><path style="clip-path:url(#SVGID_22_);fill:#1a1919" d="M31.8 42.7h13.6v28.4H31.8z"/></g></g><g class="st1"><defs><path d="M49.2 55.1c-2.2-.8-2.8-1.3-2.8-2.3 0-1.2 1.1-2 2.7-2 1.1 0 2 .4 2.9 1.5l1.9-2.5c-1.5-1.4-3.4-2-5.4-2-3.3 0-5.7 2.3-5.7 5.3 0 2.5 1.2 3.8 4.5 5.1 1.4.5 2.1.8 2.5 1.1.7.5 1.1 1.1 1.1 1.9 0 1.5-1.2 2.6-2.8 2.6-1.7 0-3.1-.9-3.9-2.5l-2.3 2.2c1.7 2.4 3.6 3.5 6.4 3.5 3.7 0 6.4-2.5 6.4-6.1-.2-3-1.4-4.3-5.5-5.8" id="SVGID_23_"/></defs><clipPath id="SVGID_24_"><use style="overflow:visible" xlink:href="#SVGID_23_"/></clipPath><g style="clip-path:url(#SVGID_24_)"><defs><path id="SVGID_25_" d="M13.9 24h128v80h-128z"/></defs><clipPath id="SVGID_26_"><use style="overflow:visible" xlink:href="#SVGID_25_"/></clipPath><path style="clip-path:url(#SVGID_26_);fill:#1a1919" d="M36.8 42.7h22.7v29.2H36.8z"/></g></g><g class="st1"><defs><path d="M55.4 56.6c0 5.4 4.3 9.6 9.7 9.6 1.5 0 2.9-.3 4.5-1.1v-4.2c-1.4 1.4-2.7 2-4.3 2-3.6 0-6.2-2.6-6.2-6.3 0-3.5 2.6-6.3 6-6.3 1.7 0 3 .6 4.5 2.1v-4.2c-1.6-.9-2.9-1.2-4.4-1.2-5.5 0-9.8 4.3-9.8 9.6" id="SVGID_27_"/></defs><clipPath id="SVGID_28_"><use style="overflow:visible" xlink:href="#SVGID_27_"/></clipPath><g style="clip-path:url(#SVGID_28_)"><defs><path id="SVGID_29_" d="M13.9 24h128v80h-128z"/></defs><clipPath id="SVGID_30_"><use style="overflow:visible" xlink:href="#SVGID_29_"/></clipPath><path style="clip-path:url(#SVGID_30_);fill:#1a1919" d="M50.4 42h24.2v29.2H50.4z"/></g></g><g class="st1"><defs><path id="SVGID_31_" d="m98.5 60.1-4.9-12.4h-3.9l7.8 18.9h1.9l8-18.9h-3.9l-5 12.4"/></defs><clipPath id="SVGID_32_"><use style="overflow:visible" xlink:href="#SVGID_31_"/></clipPath><g style="clip-path:url(#SVGID_32_)"><defs><path id="SVGID_33_" d="M13.9 24h128v80h-128z"/></defs><clipPath id="SVGID_34_"><use style="overflow:visible" xlink:href="#SVGID_33_"/></clipPath><path style="clip-path:url(#SVGID_34_);fill:#1a1919" d="M84.7 42.7h27.7v28.9H84.7z"/></g></g><g class="st1"><defs><path id="SVGID_35_" d="M109 66.1h10.2V63h-6.6v-5h6.3v-3.1h-6.3v-4.1h6.6v-3.1H109v18.4"/></defs><clipPath id="SVGID_36_"><use style="overflow:visible" xlink:href="#SVGID_35_"/></clipPath><g style="clip-path:url(#SVGID_36_)"><defs><path id="SVGID_37_" d="M13.9 24h128v80h-128z"/></defs><clipPath id="SVGID_38_"><use style="overflow:visible" xlink:href="#SVGID_37_"/></clipPath><path style="clip-path:url(#SVGID_38_);fill:#1a1919" d="M104 42.7h20.2v28.4H104z"/></g></g><g class="st1"><defs><path d="M133.7 53.1c0-3.4-2.4-5.4-6.5-5.4h-5.3v18.4h3.6v-7.4h.5l5 7.4h4.4l-5.8-7.8c2.6-.5 4.1-2.4 4.1-5.2zm-7.2 3.1h-1v-5.6h1.1c2.2 0 3.4.9 3.4 2.7 0 1.9-1.2 2.9-3.5 2.9z" id="SVGID_39_"/></defs><clipPath id="SVGID_40_"><use style="overflow:visible" xlink:href="#SVGID_39_"/></clipPath><g style="clip-path:url(#SVGID_40_)"><defs><path id="SVGID_41_" d="M13.9 24h128v80h-128z"/></defs><clipPath id="SVGID_42_"><use style="overflow:visible" xlink:href="#SVGID_41_"/></clipPath><path style="clip-path:url(#SVGID_42_);fill:#1a1919" d="M116.9 42.7h23.4v28.4h-23.4z"/></g></g><g class="st1"><defs><path d="M90.3 56.6c0 5.3-4.3 9.6-9.6 9.6s-9.6-4.3-9.6-9.6 4.3-9.6 9.6-9.6 9.6 4.3 9.6 9.6" id="SVGID_43_"/></defs><clipPath id="SVGID_44_"><use style="overflow:visible" xlink:href="#SVGID_43_"/></clipPath><g style="clip-path:url(#SVGID_44_)"><defs><path id="SVGID_45_" d="M13.9 24h128v80h-128z"/></defs><clipPath id="SVGID_46_"><use style="overflow:visible" xlink:href="#SVGID_45_"/></clipPath><path style="clip-path:url(#SVGID_46_);fill:#e6772f" d="M66.1 42h29.2v29.2H66.1z"/></g></g><g class="st1"><defs><path d="M135.9 48.2c0-.3-.2-.5-.6-.5h-.5v1.7h.4v-.7l.5.7h.5l-.6-.7c.2-.1.3-.2.3-.5zm-.7.3-.1-.4h.1c.2 0 .3.1.3.2s-.1.2-.3.2z" id="SVGID_47_"/></defs><clipPath id="SVGID_48_"><use style="overflow:visible" xlink:href="#SVGID_47_"/></clipPath><g style="clip-path:url(#SVGID_48_)"><defs><path id="SVGID_49_" d="M13.9 24h128v80h-128z"/></defs><clipPath id="SVGID_50_"><use style="overflow:visible" xlink:href="#SVGID_49_"/></clipPath><path style="clip-path:url(#SVGID_50_);fill:#1a1919" d="M129.7 42.7h11.4v11.7h-11.4z"/></g></g><g class="st1"><defs><path d="M135.5 47c-.8 0-1.5.7-1.5 1.5s.7 1.5 1.5 1.5 1.5-.7 1.5-1.5-.7-1.5-1.5-1.5zm0 2.7c-.7 0-1.2-.5-1.2-1.2s.5-1.2 1.2-1.2c.6 0 1.2.6 1.2 1.2s-.5 1.2-1.2 1.2z" id="SVGID_51_"/></defs><clipPath id="SVGID_52_"><use style="overflow:visible" xlink:href="#SVGID_51_"/></clipPath><g style="clip-path:url(#SVGID_52_)"><defs><path id="SVGID_53_" d="M13.9 24h128v80h-128z"/></defs><clipPath id="SVGID_54_"><use style="overflow:visible" xlink:href="#SVGID_53_"/></clipPath><path style="clip-path:url(#SVGID_54_);fill:#1a1919" d="M129 42h13v13h-13z"/></g></g></g></svg>