<svg style="fill-rule:evenodd;clip-rule:evenodd;stroke-linejoin:round;stroke-miterlimit:1.41421" viewBox="0 0 1117 759" xml:space="preserve" xmlns="http://www.w3.org/2000/svg"><path d="M62.002.416c-15.605 0-30.09 11.795-33.693 27.434L.813 147.359c-2.034 8.805-.209 17.675 5 24.34C10.939 178.242 18.855 182 27.521 182h178.418c15.598 0 30.086-11.79 33.706-27.42 0-.018 27.492-119.523 27.492-119.523 2.036-8.804.209-17.691-5.004-24.344C257.002 4.17 249.096.416 240.429.416H62.002Z" style="fill:#fff;fill-rule:nonzero" transform="scale(4.16667)"/><path d="M64.505 19.785h57.003c7.96 0 12.908 6.477 11.047 14.459l-26.536 113.929c-1.869 7.981-9.835 14.454-17.792 14.454H31.224c-7.966 0-12.911-6.473-11.043-14.454L46.722 34.244c1.86-7.982 9.817-14.459 17.783-14.459Z" style="fill:#ed1c24;fill-rule:nonzero" transform="scale(4.16667)"/><path d="M116.778 19.785h56.999c7.965 0 12.912 6.477 11.043 14.459l-26.541 113.929c-1.869 7.981-9.826 14.454-17.8 14.454h-56.99c-7.974 0-12.912-6.473-11.044-14.454L98.979 34.244c1.868-7.982 9.834-14.459 17.799-14.459Z" style="fill:#00569e;fill-rule:nonzero" transform="scale(4.16667)"/><path d="M179.732 19.785h56.994c7.966 0 12.912 6.477 11.044 14.459l-26.532 113.929c-1.869 7.981-9.834 14.454-17.801 14.454h-57.002c-7.966 0-12.912-6.473-11.043-14.454l26.532-113.929c1.868-7.982 9.834-14.459 17.808-14.459Z" style="fill:#00898e;fill-rule:nonzero" transform="scale(4.16667)"/><path d="m188.223 103.898-5.38 22.981h1.86l-1.125 4.77h-1.861l-.342 1.456h-6.606l.342-1.456h-13.429l1.051-4.399 1.368-.021 5.463-23.331 1.085-4.716h6.747l-.533 2.39s1.701-1.305 3.369-1.743c1.677-.438 11.444-.609 11.444-.609l-1.134 4.678h-2.319Zm-11.886 0-1.377 5.881s1.936-.909 3.012-1.201c1.084-.288 2.736-.4 2.736-.4l.993-4.28h-5.364Zm-2.068 8.809-1.427 6.094s1.968-1.047 3.054-1.34c1.076-.291 2.734-.475 2.734-.475l1.019-4.279h-5.38Zm-3.328 14.242h5.371l1.21-5.176h-5.372l-1.209 5.176ZM192.043 99.229h7.19l.084 2.676c-.042.434.342.652 1.184.667h1.209l-1.084 4.43h-3.886c-3.37.242-4.647-1.21-4.563-2.832l-.134-4.941Z" style="fill:#fff" transform="scale(4.16667)"/><path d="M193.261 120.23h-6.865l.918-3.945h7.832l.876-3.611h-7.74l1.042-4.434h21.537l-1.051 4.434h-7.232l-.875 3.611h7.24l-.926 3.945h-7.824l-1.293 1.665h3.178l1.126 4.97c.09.489.141.811.308 1.014.167.176 1.134.264 1.685.264h.96l-1.134 4.849h-2.445c-.375 0-.942-.016-1.709-.084-.744-.057-1.301-.483-1.811-.717-.467-.216-1.176-.771-1.401-1.693l-1.093-4.954-3.219 4.895c-1.043 1.519-2.494 2.696-5.072 2.696h-5.004l1.009-4.297h1.919c.55 0 1.033-.224 1.375-.403.351-.164.66-.351 1.002-.873l4.687-7.332ZM117.42 109.437h18.155l-1.042 4.338h-7.291l-.888 3.695h7.411l-1.076 4.487h-7.412l-1.438 5.984c-.167.673 1.814.764 2.532.764l3.681-.492-1.183 4.93h-8.379c-.668 0-1.18-.076-1.918-.259-.718-.171-1.047-.492-1.393-.976-.33-.467-.822-.876-.572-1.917l1.911-7.958h-4.13l1.097-4.563h4.138l.879-3.695h-4.12l1.038-4.338ZM129.169 101.655h7.457l-1.085 4.517h-10.18l-1.051.972c-.43.45-.617.262-1.205.584-.567.3-1.739.867-3.308.867h-3.26l1.046-4.355h.977c.833 0 1.397-.074 1.676-.261.3-.188.638-.66 1.005-1.407l1.659-3.402h7.42l-1.151 2.485ZM139.662 99.204h6.356l-.734 3.202s1.91-1.605 3.286-2.143c1.368-.543 4.504-1.001 4.504-1.001l10.259-.066-2.769 11.659c-.475 1.995-1.076 3.287-1.459 3.883-.367.584-.775 1.106-1.644 1.598-.85.45-1.618.709-2.335.783-.692.059-1.726.08-3.162.096h-9.892l-2.21 9.23c-.225.913-.318 1.342-.134 1.584.168.225.518.477.984.477l4.33-.418-1.176 5.058h-4.896c-1.543 0-2.686-.02-3.47-.095-.759-.059-1.543 0-2.085-.418-.493-.391-1.21-.908-1.227-1.45.017-.505.167-1.334.417-2.47l7.057-29.509Zm14.213 11.794h-10.402l-.509 2.093h9.009c1.06-.109 1.284.024 1.368-.013l.534-2.08Zm-9.952-1.894s1.91-1.86 5.365-2.469c.784-.142 5.747-.1 5.747-.1l.591-2.494h-10.493l-1.21 5.063Z" style="fill:#fff" transform="scale(4.16667)"/><path d="m159.338 118.033-.4 2.807c-.218.863-.376 1.526-1.001 2.101-.659.592-1.443 1.202-3.345 1.202l-3.503.137.15 3.161c.026.918.251.823.401.967.166.154.324.223.484.264l1.117-.041 3.337-.205-1.094 4.641h-3.853c-2.719 0-4.721-.083-5.413-.575-.676-.446-.801-.959-.834-1.822l-.517-12.358h6.164l.074 2.528h1.477c.517 0 .851-.051 1.06-.184.175-.134.291-.342.375-.658l.467-1.965h4.854Z" style="fill:#fff" transform="scale(4.16667)"/><path d="M71.252 56.16a10115.61 10115.61 0 0 1-4.187 19.271c-.851 3.679-1.468 6.332-3.561 8.033-1.218.976-2.594 1.455-4.212 1.455-2.595 0-4.113-1.296-4.379-3.745l-.051-.83s.793-4.946.801-4.971c0 0 4.162-16.632 4.896-18.842.025-.117.042-.183.067-.259-8.083.101-9.525.025-9.625-.117-.042.176-.259 1.21-.259 1.21L46.505 76.12l-.367 1.588-.693 5.189c0 1.547.301 2.81.91 3.862 1.926 3.386 7.44 3.895 10.551 3.895 4.012 0 7.774-.876 10.326-2.406 4.404-2.624 5.572-6.719 6.606-10.331l.476-1.86s4.278-17.283 5.013-19.53c.025-.121.041-.179.058-.255-5.847.088-7.582.017-8.133-.112ZM94.908 90.462c-2.878-.033-3.87-.033-7.223.117l-.134-.225c.292-1.294.617-2.544.909-3.837l.4-1.731c.626-2.732 1.235-5.864 1.302-6.827.066-.584.25-2.027-1.393-2.027-.701 0-1.435.334-2.169.667-.4 1.435-1.218 5.497-1.601 7.34-.826 3.908-.885 4.35-1.251 6.265l-.243.258c-2.952-.033-3.979-.033-7.373.117l-.159-.258c.568-2.328 1.135-4.651 1.669-6.974 1.434-6.268 1.768-8.666 2.16-11.836l.267-.224c3.32-.443 4.112-.551 7.715-1.29l.293.33-.543 2.027c.601-.367 1.193-.734 1.819-1.067 1.685-.81 3.569-1.069 4.595-1.069 1.569 0 3.295.443 4.012 2.252.693 1.618.234 3.612-.667 7.557l-.458 1.994c-.926 4.387-1.077 5.197-1.577 8.183l-.35.258ZM106.561 90.462a187.563 187.563 0 0 0-3.929-.012c-1.076.012-2.127.053-3.737.129l-.092-.133-.1-.125c.434-1.669.667-2.253.893-2.837.216-.588.425-1.18.809-2.861.5-2.181.809-3.732 1.034-5.063.226-1.321.367-2.423.526-3.694l.133-.109.142-.117c1.718-.237 2.811-.396 3.92-.576a159.77 159.77 0 0 0 4.046-.717l.116.3a660.605 660.605 0 0 0-.992 4.101c-.326 1.363-.642 2.735-.96 4.099-.65 2.886-.9 3.978-1.05 4.721-.151.742-.193 1.143-.442 2.636l-.159.132-.158.126ZM132.305 80.595c1.009-4.417.242-6.477-.751-7.732-1.502-1.911-4.124-2.536-6.869-2.536-1.643 0-5.554.183-8.616 3.02-2.185 2.018-3.219 4.778-3.828 7.431-.617 2.69-1.335 7.586 3.119 9.35 1.401.593 3.37.777 4.646.777 3.286 0 6.64-.918 9.154-3.608 1.952-2.135 2.837-5.376 3.145-6.702Zm-7.486-.33c-.167.738-.809 3.533-1.701 4.709-.593.85-1.335 1.367-2.136 1.367-.225 0-1.643 0-1.677-2.101-.016-1.031.193-2.098.459-3.275.759-3.315 1.652-6.109 3.921-6.109 1.793 0 1.901 2.06 1.134 5.409ZM195.505 85.32c-.592.838-1.985 1.355-2.787 1.355-.224 0-1.642 0-1.676-2.085-.016-1.026.192-2.086.459-3.253.758-3.287 1.651-6.064 3.92-6.064 1.477 0 2.194 1.448 1.995 3.804-.118.529-.218 1.008-.36 1.634-.242 1.027-.525 2.036-.775 3.057-.234.601-.485 1.168-.776 1.552Zm11.344-14.768c-3.587.654-4.529.801-7.967 1.277l-.266.216c-.042.292-.075.559-.116.839-.535-.877-1.286-1.644-2.495-2.107-1.535-.592-5.137.184-8.199 2.995-2.185 2.01-3.22 4.75-3.828 7.381-.617 2.67-1.335 7.532 3.119 9.284a8.823 8.823 0 0 0 3.971.692c1.367-.07 2.619-.788 3.795-1.772-.11.417-.209.838-.318 1.255l.201.26c3.211-.151 4.195-.151 7.657-.11l.317-.259c.5-2.961.985-5.846 2.303-11.547.625-2.707 1.283-5.41 1.942-8.112l-.116-.292ZM151.89 90.462c-2.878-.033-3.862-.033-7.223.117l-.134-.225c.3-1.294.617-2.544.918-3.837l.392-1.731c.625-2.732 1.235-5.864 1.309-6.827.058-.584.242-2.027-1.402-2.027-.692 0-1.425.334-2.16.667-.399 1.435-1.217 5.497-1.609 7.34-.817 3.908-.885 4.35-1.251 6.265l-.242.258c-2.946-.033-3.971-.033-7.366.117l-.158-.258c.567-2.328 1.134-4.651 1.668-6.974 1.435-6.268 1.76-8.666 2.16-11.836l.267-.224c3.312-.443 4.112-.551 7.708-1.29l.291.33-.533 2.027a35.027 35.027 0 0 1 1.809-1.067c1.685-.81 3.571-1.069 4.596-1.069 1.569 0 3.296.443 4.021 2.252.683 1.618.224 3.612-.676 7.557l-.45 1.994c-.935 4.387-1.084 5.197-1.585 8.183l-.35.258ZM179.84 66.849c-.516 2.276-1.976 4.195-3.886 5.138-1.585.788-3.496.855-5.48.855h-1.293l.116-.521s2.353-10.268 2.344-10.235l.067-.521.05-.413.935.092s4.862.433 4.987.458c1.918.734 2.728 2.652 2.16 5.147Zm-3.102-10.727-2.386.05c-6.197.062-8.683.046-9.709-.083-.092.442-.259 1.255-.259 1.259 0 0-2.211 10.293-2.211 10.301l-5.562 22.914c5.404-.076 7.632-.08 8.558.024.216-1.034 1.476-7.131 1.485-7.144 0 0 1.075-4.492 1.142-4.633 0 0 .326-.476.676-.659h.484c4.663 0 9.942 0 14.071-3.045 2.803-2.068 4.729-5.138 5.588-8.875.217-.925.385-2.018.385-3.119 0-1.41-.285-2.841-1.12-3.97-2.109-2.932-6.288-2.97-11.142-3.02ZM109.705 72.871c1.894-1.306 2.135-3.137.525-4.087-1.609-.943-4.445-.647-6.347.659-1.91 1.318-2.135 3.148-.534 4.095 1.61.947 4.454.65 6.356-.667Z" style="fill:#fff;fill-rule:nonzero" transform="scale(4.16667)"/><path d="m230.728 70.519-.282-.326c-3.529.73-4.171.843-7.416 1.277l-.259.22-.024.163-.017-.042c-2.436 5.597-2.353 4.388-4.32 8.775-.008-.2-.018-.35-.026-.538l-.492-9.529-.301-.326c-3.711.73-3.802.843-7.222 1.277l-.276.22-.05.389.034.033c.417 2.202.325 1.718.751 5.163.191 1.685.459 3.399.65 5.08.35 2.777.533 4.186.942 8.425-2.31 3.836-2.86 5.279-5.063 8.64v.008l-1.576 2.494c-.175.267-.342.433-.559.517-.25.108-.592.151-1.043.151h-1.201l-1 4.486 4.471-.066c2.593-.021 4.236-1.301 5.129-2.919l2.736-4.774 16.414-28.798Z" style="fill:#fff" transform="scale(4.16667)"/></svg>